<svg width="55" height="19" viewBox="0 0 55 19" fill="none" xmlns="http://www.w3.org/2000/svg">
<path d="M0.0880001 18H2.104V10.584H9.424V18H11.416V2.256H9.424V8.856H2.104V2.256H0.0880001V18ZM14.3931 12.192C14.3931 16.008 16.8651 18.288 19.9851 18.288C21.5691 18.288 22.8171 17.736 23.8251 17.088L23.1291 15.792C22.2651 16.344 21.3291 16.704 20.2251 16.704C17.9931 16.704 16.4811 15.12 16.3371 12.6H24.2091C24.2571 12.312 24.2811 11.928 24.2811 11.52C24.2811 8.184 22.6011 6.048 19.6251 6.048C16.9611 6.048 14.3931 8.376 14.3931 12.192ZM16.3131 11.304C16.5531 8.952 18.0411 7.608 19.6731 7.608C21.4971 7.608 22.5531 8.928 22.5531 11.304H16.3131ZM26.0092 14.976C26.0092 17.064 27.4732 18.288 29.4412 18.288C30.8812 18.288 32.1772 17.52 33.3052 16.608H33.3532L33.5212 18H35.1532V10.848C35.1532 7.944 33.9532 6.048 31.0972 6.048C29.2252 6.048 27.5932 6.864 26.5132 7.56L27.3052 8.928C28.2172 8.304 29.4172 7.68 30.7852 7.68C32.6812 7.68 33.1852 9.12 33.1852 10.608C28.2172 11.16 26.0092 12.432 26.0092 14.976ZM27.9532 14.832C27.9532 13.344 29.2732 12.384 33.1852 11.904V15.144C32.0572 16.152 31.1212 16.704 29.9932 16.704C28.8412 16.704 27.9532 16.152 27.9532 14.832ZM37.7764 12.192C37.7764 16.08 39.6724 18.288 42.6004 18.288C43.9684 18.288 45.2164 17.52 46.1284 16.632H46.2004L46.3684 18H48.0004V0.912H46.0084V5.4L46.1044 7.392C45.0724 6.552 44.1844 6.048 42.8404 6.048C40.1764 6.048 37.7764 8.4 37.7764 12.192ZM39.8164 12.168C39.8164 9.504 41.3044 7.704 43.1764 7.704C44.1364 7.704 45.0244 8.04 46.0084 8.928V15.024C45.0484 16.104 44.1124 16.632 43.0324 16.632C40.9924 16.632 39.8164 14.952 39.8164 12.168ZM51.2709 16.8C51.2709 17.664 51.9189 18.288 52.7109 18.288C53.4789 18.288 54.1269 17.664 54.1269 16.8C54.1269 15.888 53.4789 15.264 52.7109 15.264C51.9189 15.264 51.2709 15.888 51.2709 16.8Z" fill="white"/>
</svg>
