<svg xmlns="http://www.w3.org/2000/svg" width="50" height="50" viewBox="0 0 50 50">
  <path id="codepen" d="M37.8,27.223V22.777L34.479,25Zm2.658,2.488a1.309,1.309,0,0,1-.013.173l-.01.058-.023.11-.021.065a.923.923,0,0,1-.035.1l-.029.063q-.021.045-.044.09l-.04.062a1.187,1.187,0,0,1-.167.208l-.054.052q-.036.033-.075.062l-.06.046-.021.017L25.738,40.235a1.327,1.327,0,0,1-1.475,0L10.133,30.812l-.021-.017a1.248,1.248,0,0,1-.135-.108l-.054-.052-.067-.071-.044-.058a1.225,1.225,0,0,1-.14-.229l-.029-.065q-.02-.048-.035-.1l-.021-.062a1.066,1.066,0,0,1-.021-.112l-.013-.058a1.308,1.308,0,0,1-.012-.173V20.29a1.207,1.207,0,0,1,.012-.173l.01-.056.023-.112.021-.062a1.2,1.2,0,0,1,.25-.452l.065-.071.054-.052a1.292,1.292,0,0,1,.135-.108l.021-.017L24.262,9.767a1.329,1.329,0,0,1,1.475,0l14.129,9.419.021.017.063.046.073.062a.639.639,0,0,1,.054.052,1.135,1.135,0,0,1,.167.208l.04.063q.024.044.044.09l.029.063c.015.033.025.067.035.1l.021.065a1.066,1.066,0,0,1,.021.112l.013.056a1.29,1.29,0,0,1,.012.173ZM25,0A25,25,0,1,0,50,25,25,25,0,0,0,25,0m0,21.858L20.3,25,25,28.146,29.7,25Zm1.329,8.592v6.2L36.737,29.71l-4.65-3.11Zm-13.067-.742,10.408,6.938v-6.2L17.913,26.6Zm23.475-9.417L26.329,13.354v6.2L32.088,23.4ZM23.671,19.55v-6.2L13.262,20.292l4.65,3.11ZM12.2,22.777v4.446L15.521,25Z" fill="#fff"/>
</svg>
