<svg xmlns="http://www.w3.org/2000/svg" xmlns:xlink="http://www.w3.org/1999/xlink" width="120.44" height="119.401" viewBox="0 0 120.44 119.401">
  <defs>
    <clipPath id="clip-path">
      <circle id="Ellipse_6" data-name="Ellipse 6" cx="36.904" cy="36.904" r="36.904"/>
    </clipPath>
    <linearGradient id="linear-gradient" x1="0.664" y1="0.569" x2="0.166" y2="0.503" gradientUnits="objectBoundingBox">
      <stop offset="0" stop-color="#fff"/>
      <stop offset="0.876"/>
    </linearGradient>
  </defs>
  <g id="gluetube-logo" transform="translate(-0.189 -0.196)">
    <g id="Group_41" data-name="Group 41" transform="translate(23.505 0.196)">
      <circle id="Ellipse_5" data-name="Ellipse 5" cx="36.904" cy="36.904" r="36.904" fill="#e0e0e0"/>
      <g id="Group_40" data-name="Group 40">
        <g id="Group_39" data-name="Group 39" clip-path="url(#clip-path)">
          <path id="Path_42" data-name="Path 42" d="M11.693.339,59.661,48.307,48.151,86.4,1,85.286V.339Z" transform="translate(35.904 10.279)" opacity="0.2" fill="url(#linear-gradient)"/>
          <g id="Group_35" data-name="Group 35" transform="translate(15.148 10.618)">
            <path id="Path_43" data-name="Path 43" d="M39.839,8.661,30.631.642H14.37L5.162,8.661.707,78.758H44.294Z" transform="translate(-0.707 21.857)" fill="#ffcf2b"/>
            <path id="Path_44" data-name="Path 44" d="M1.3,1.561.707,11.437H44.294l-.668-9.876Z" transform="translate(-0.707 89.178)" fill="#ebac34"/>
            <path id="Path_45" data-name="Path 45" d="M35.444,8.661,26.236.642H9.975L.767,8.661Z" transform="translate(3.688 21.857)" fill="#929496"/>
            <rect id="Rectangle_17" data-name="Rectangle 17" width="21.311" height="22.499" transform="translate(11.138)" fill="#4e4c4d"/>
          </g>
          <g id="Group_38" data-name="Group 38" transform="translate(-446.038 -423.242)">
            <rect id="Rectangle_18" data-name="Rectangle 18" width="1485.086" height="1485.086" fill="none" opacity="0.09"/>
            <g id="Group_37" data-name="Group 37" transform="translate(461.186 433.86)">
              <g id="Group_36" data-name="Group 36" transform="translate(0 0)">
                <path id="Path_46" data-name="Path 46" d="M39.839,8.661,30.631.642H14.37L5.162,8.661.707,78.758H44.294Z" transform="translate(-0.707 21.857)" fill="#ffcf2b"/>
                <path id="Path_47" data-name="Path 47" d="M1.3,1.561.707,11.437H44.294l-.668-9.876Z" transform="translate(-0.707 89.178)" fill="#ebac34"/>
                <path id="Path_48" data-name="Path 48" d="M35.444,8.661,26.236.642H9.975L.767,8.661Z" transform="translate(3.688 21.857)" fill="#929496"/>
                <rect id="Rectangle_19" data-name="Rectangle 19" width="21.311" height="22.499" transform="translate(11.138)" fill="#4e4c4d"/>
              </g>
            </g>
          </g>
        </g>
      </g>
    </g>
    <g id="Group_58" data-name="Group 58" transform="translate(0.189 82.544)">
      <g id="Group_46" data-name="Group 46" transform="translate(18.935 0.371)">
        <g id="Group_45" data-name="Group 45" transform="translate(0)">
          <g id="Group_42" data-name="Group 42">
            <path id="Path_49" data-name="Path 49" d="M6.467,27.159a11.151,11.151,0,0,1-2.97-.371,4.5,4.5,0,0,1-1.856-1.04,3.209,3.209,0,0,1-.891-1.634,7.518,7.518,0,0,1-.3-2.3V1.986l4.01-.668V21a5.167,5.167,0,0,0,.149,1.188,1.23,1.23,0,0,0,.371.891,2.212,2.212,0,0,0,.817.52,5.265,5.265,0,0,0,1.262.3Z" transform="translate(0.142 -0.724)" fill="#fc0"/>
            <path id="Path_50" data-name="Path 50" d="M7.572,28.339H7.127a9.25,9.25,0,0,1-3.119-.446A4.657,4.657,0,0,1,1.855,26.7,3.905,3.905,0,0,1,.741,24.849a8.53,8.53,0,0,1-.3-2.45V2.127L5.568,1.31V21.656a4.917,4.917,0,0,0,.074,1.114,1.492,1.492,0,0,0,.3.594,4.407,4.407,0,0,0,.594.3,3.931,3.931,0,0,0,1.188.3l.594.074ZM1.558,3.092V22.4a9.6,9.6,0,0,0,.223,2.153,4.567,4.567,0,0,0,.891,1.411,4.261,4.261,0,0,0,1.634.891,9.312,9.312,0,0,0,2.3.371L6.978,25a2.66,2.66,0,0,1-.817-.3,2.112,2.112,0,0,1-1.04-.668,1.98,1.98,0,0,1-.52-1.04,3.687,3.687,0,0,1-.149-1.337V2.572Z" transform="translate(-0.444 -1.31)" fill="#fc0"/>
          </g>
          <g id="Group_43" data-name="Group 43" transform="translate(8.019 8.391)">
            <path id="Path_51" data-name="Path 51" d="M14.89,18.137c-.743.223-1.782.371-2.97.594a23.462,23.462,0,0,1-4.084.3,9.5,9.5,0,0,1-3.49-.594A5.444,5.444,0,0,1,2.118,16.8,7.956,7.956,0,0,1,.93,14.276a13.962,13.962,0,0,1-.371-3.193V1.43h4.01v8.985a7.224,7.224,0,0,0,.817,3.935,3.092,3.092,0,0,0,2.822,1.188,12.053,12.053,0,0,0,1.559-.074,4.276,4.276,0,0,0,1.114-.074V1.43h4.01V18.137Z" transform="translate(-0.039 -0.91)" fill="#fc0"/>
            <path id="Path_52" data-name="Path 52" d="M8.349,20.135a9.219,9.219,0,0,1-3.713-.668A6.468,6.468,0,0,1,2.26,17.685,7.9,7.9,0,0,1,.923,14.937,15.877,15.877,0,0,1,.552,11.6V1.423H5.676V11a6.335,6.335,0,0,0,.743,3.638,2.574,2.574,0,0,0,2.376.965,10.457,10.457,0,0,0,1.485-.074c.3,0,.52-.074.668-.074V1.423H16V19.1l-.446.074a20.09,20.09,0,0,1-3.044.594A24.051,24.051,0,0,1,8.349,20.135ZM1.666,2.537V11.6a12.657,12.657,0,0,0,.371,3.044,6.58,6.58,0,0,0,1.04,2.3,5.893,5.893,0,0,0,2,1.485,8.558,8.558,0,0,0,3.267.594,21.746,21.746,0,0,0,3.935-.3c.965-.149,1.856-.371,2.525-.52V2.537H11.987V16.348l-.446.074a5.331,5.331,0,0,1-1.262.149,11.5,11.5,0,0,1-1.559.074,3.613,3.613,0,0,1-3.267-1.411c-.668-.891-.891-2.3-.891-4.232V2.537Z" transform="translate(-0.552 -1.423)" fill="#fc0"/>
          </g>
          <g id="Group_44" data-name="Group 44" transform="translate(24.801 7.945)">
            <path id="Path_53" data-name="Path 53" d="M.785,10.557a11.354,11.354,0,0,1,.668-4.01A9.134,9.134,0,0,1,3.235,3.726a7.533,7.533,0,0,1,2.6-1.708A8.148,8.148,0,0,1,8.8,1.424a7.109,7.109,0,0,1,5.569,2.228c1.337,1.485,2,3.638,2,6.609V11a2.289,2.289,0,0,1-.074.743H4.943a4.223,4.223,0,0,0,1.485,3.193,5.758,5.758,0,0,0,3.787,1.114,10.173,10.173,0,0,0,2.673-.3,8.568,8.568,0,0,0,1.782-.52l.52,3.267c-.223.074-.52.223-.891.371-.371.074-.817.223-1.337.3q-.668.111-1.559.223a14.418,14.418,0,0,1-1.782.149,10.656,10.656,0,0,1-3.935-.668,7.361,7.361,0,0,1-2.747-1.931A7.073,7.073,0,0,1,1.3,14.121,12.87,12.87,0,0,1,.785,10.557ZM12.369,8.775a5.653,5.653,0,0,0-.223-1.559,6.793,6.793,0,0,0-.668-1.262,2.428,2.428,0,0,0-1.114-.817A3.452,3.452,0,0,0,8.8,4.765a4.047,4.047,0,0,0-1.634.371,3.288,3.288,0,0,0-1.114.891A4.347,4.347,0,0,0,5.315,7.29a14.44,14.44,0,0,0-.371,1.485Z" transform="translate(-0.265 -0.904)" fill="#fc0"/>
            <path id="Path_54" data-name="Path 54" d="M10.134,20.575a10.393,10.393,0,0,1-4.158-.743,7.526,7.526,0,0,1-2.97-2A8.413,8.413,0,0,1,1.3,14.857a12.62,12.62,0,0,1-.52-3.787,10.393,10.393,0,0,1,.743-4.158A8.546,8.546,0,0,1,3.451,3.867,7.531,7.531,0,0,1,6.124,2.011a9.358,9.358,0,0,1,3.193-.594,7.66,7.66,0,0,1,5.94,2.376c1.411,1.559,2.153,3.935,2.153,6.98v.743a2.289,2.289,0,0,1-.074.743l-.074.52H6.05a3.628,3.628,0,0,0,1.188,2.228,5.069,5.069,0,0,0,3.416.965,13.309,13.309,0,0,0,2.525-.223,13.645,13.645,0,0,0,1.782-.52l.668-.3.743,4.381L16,19.535c-.3.074-.594.223-1.04.371-.371.074-.817.223-1.337.3a10.652,10.652,0,0,1-1.634.3A14.914,14.914,0,0,1,10.134,20.575ZM9.317,2.531a6.955,6.955,0,0,0-2.747.52A6.494,6.494,0,0,0,4.194,4.684a8.321,8.321,0,0,0-1.708,2.6,11.917,11.917,0,0,0-.594,3.787,10,10,0,0,0,.52,3.416,6.444,6.444,0,0,0,1.485,2.6,6.623,6.623,0,0,0,2.525,1.708,9.472,9.472,0,0,0,3.713.668,13.144,13.144,0,0,0,1.708-.074l1.559-.223c.446-.148.891-.223,1.262-.371a1.055,1.055,0,0,0,.446-.149l-.371-2.153c-.371.149-.817.223-1.337.371a15.569,15.569,0,0,1-2.747.3A6.318,6.318,0,0,1,6.5,15.9a5.382,5.382,0,0,1-1.634-3.638l-.074-.594H16.223V10.7c0-2.747-.594-4.827-1.856-6.237A6.544,6.544,0,0,0,9.317,2.531ZM13.4,9.882H4.788l.074-.594a12.932,12.932,0,0,1,.371-1.634A5.8,5.8,0,0,1,6.05,6.169,4.624,4.624,0,0,1,7.387,5.13a3.785,3.785,0,0,1,1.856-.371,4.486,4.486,0,0,1,1.782.371,3.119,3.119,0,0,1,1.337.965A3.508,3.508,0,0,1,13.1,7.58a6.329,6.329,0,0,1,.223,1.708v.594ZM6.124,8.768h6.163a2.669,2.669,0,0,0-.149-.817,3.935,3.935,0,0,0-.594-1.114,7.864,7.864,0,0,0-.891-.743,3.6,3.6,0,0,0-1.337-.223,2.543,2.543,0,0,0-1.337.3,3.331,3.331,0,0,0-.965.743,2.8,2.8,0,0,0-.668,1.114C6.273,8.248,6.2,8.471,6.124,8.768Z" transform="translate(-0.778 -1.417)" fill="#fc0"/>
          </g>
        </g>
      </g>
      <g id="Group_49" data-name="Group 49" transform="translate(0 7.277)">
        <g id="Group_48" data-name="Group 48">
          <g id="Group_47" data-name="Group 47">
            <path id="Path_55" data-name="Path 55" d="M.269,27.622l2.9-3.564a7.8,7.8,0,0,0,5.346,2.228,8.287,8.287,0,0,0,3.267-.594,1.752,1.752,0,0,0,1.262-1.634c0-1.188-.965-1.708-2.822-1.708-.52,0-1.262.074-2.3.149-.965.074-1.782.149-2.3.149-3.193,0-4.752-1.114-4.752-3.416A3.135,3.135,0,0,1,1.68,17.3a5.381,5.381,0,0,1,1.856-1.337A6.963,6.963,0,0,1,.195,9.8,6.563,6.563,0,0,1,2.5,4.6,8.1,8.1,0,0,1,8.214,2.524a8.994,8.994,0,0,1,4.455.965L14.378,1.41l3.193,2.9L15.417,5.865a7.31,7.31,0,0,1,1.114,4.084A6.993,6.993,0,0,1,14.452,15.3a7.111,7.111,0,0,1-5.2,2,10.076,10.076,0,0,1-1.337-.074l-.668-.074a6.482,6.482,0,0,0-.965.371c-.594.3-.891.52-.891.817,0,.52.446.743,1.262.743a8.642,8.642,0,0,0,1.931-.3,14.049,14.049,0,0,1,2.3-.223q6.683,0,6.683,5.346A5.236,5.236,0,0,1,14.9,28.587a11.961,11.961,0,0,1-6.46,1.708A13.617,13.617,0,0,1,.269,27.622ZM4.873,9.8a3.954,3.954,0,0,0,.965,2.822,3.464,3.464,0,0,0,2.6,1.04,3.188,3.188,0,0,0,2.525-1.04A4.148,4.148,0,0,0,11.853,9.8a3.471,3.471,0,0,0-.965-2.525,3.367,3.367,0,0,0-2.45-1.04,3.529,3.529,0,0,0-2.6.965A3.646,3.646,0,0,0,4.873,9.8Z" transform="translate(0.251 -0.89)" fill="#fc0"/>
            <path id="Path_56" data-name="Path 56" d="M8.877,31.179A13.852,13.852,0,0,1,.486,28.432l-.3-.223L3.6,24.051l.3.3a7.389,7.389,0,0,0,5.049,2,9.091,9.091,0,0,0,3.119-.52c.743-.3,1.04-.743,1.04-1.262,0-.371,0-1.337-2.45-1.337-.52,0-1.262.074-2.228.149-1.04.074-1.782.149-2.376.149-2.3,0-5.049-.668-5.049-3.713A3.237,3.237,0,0,1,1.9,17.665a4.069,4.069,0,0,1,1.337-1.188,7.334,7.334,0,0,1-2.97-6.163,6.954,6.954,0,0,1,2.45-5.495,8.585,8.585,0,0,1,5.94-2.153,9.473,9.473,0,0,1,4.307.891L14.817,1.4,18.6,4.819,16.3,6.527a6.941,6.941,0,0,1,1.04,3.935,7.73,7.73,0,0,1-2.153,5.643,7.447,7.447,0,0,1-5.421,2.153,9.01,9.01,0,0,1-1.337-.074l-.743-.149a2.534,2.534,0,0,0-.817.371c-.52.223-.668.371-.668.446s0,.371.891.371a8.166,8.166,0,0,0,1.856-.3,14.883,14.883,0,0,1,2.376-.223c4.678,0,7.054,1.931,7.054,5.718A5.692,5.692,0,0,1,15.56,29.4,12.135,12.135,0,0,1,8.877,31.179ZM1.229,28.06a13.318,13.318,0,0,0,7.648,2.376A11.16,11.16,0,0,0,15.114,28.8a4.867,4.867,0,0,0,2.525-4.381c0-3.341-2.079-4.975-6.312-4.975a9.2,9.2,0,0,0-2.228.3,13.4,13.4,0,0,1-2,.223c-1.411,0-1.634-.668-1.634-1.114,0-.668.817-1.04,1.04-1.188.891-.371,1.04-.371,1.188-.371h.074l.743.074a11.088,11.088,0,0,0,1.262.149,6.658,6.658,0,0,0,4.9-1.931A6.945,6.945,0,0,0,16.6,10.462,6.578,6.578,0,0,0,15.485,6.6l-.149-.3,2.079-1.559-2.525-2.3-1.782,2L12.886,4.3a9.149,9.149,0,0,0-4.232-.891,7.645,7.645,0,0,0-5.421,2,5.918,5.918,0,0,0-2.228,4.9A6.589,6.589,0,0,0,4.2,16.18l.594.371-.668.3A3.954,3.954,0,0,0,2.417,18.11a2.616,2.616,0,0,0-.668,1.708c0,2,1.411,3.044,4.381,3.044.52,0,1.262-.074,2.228-.149a11.3,11.3,0,0,1,2.3-.3c2.673,0,3.193,1.114,3.193,2.079a2.167,2.167,0,0,1-1.485,1.931,6.685,6.685,0,0,1-3.416.668,8.265,8.265,0,0,1-5.346-2ZM8.877,14.546a3.7,3.7,0,0,1-2.9-1.188,4.443,4.443,0,0,1-1.04-3.044A3.863,3.863,0,0,1,6.055,7.492,3.636,3.636,0,0,1,8.877,6.378a3.694,3.694,0,0,1,2.747,1.114,4.076,4.076,0,0,1,1.04,2.747,4.411,4.411,0,0,1-.965,3.044A3.3,3.3,0,0,1,8.877,14.546Zm0-7.425a3.054,3.054,0,0,0-3.193,3.193,3.376,3.376,0,0,0,.891,2.525,2.684,2.684,0,0,0,2.3.965,2.8,2.8,0,0,0,2.228-.891,3.887,3.887,0,0,0,.817-2.6A3.287,3.287,0,0,0,11.1,8.086,2.824,2.824,0,0,0,8.877,7.121Z" transform="translate(-0.189 -1.403)" fill="#fc0"/>
          </g>
        </g>
      </g>
      <g id="Group_53" data-name="Group 53" transform="translate(62.077 3.267)">
        <g id="Group_52" data-name="Group 52">
          <g id="Group_50" data-name="Group 50">
            <path id="Path_57" data-name="Path 57" d="M3.183,7h7.054V8.854H3.183v9.43a11.022,11.022,0,0,0,.223,2.45,3.983,3.983,0,0,0,.743,1.485,1.929,1.929,0,0,0,1.188.668,4.81,4.81,0,0,0,1.485.149,5.96,5.96,0,0,0,2.228-.3,13.2,13.2,0,0,0,1.337-.594L10.906,24a5.449,5.449,0,0,1-1.559.668,7.6,7.6,0,0,1-2.6.371A7.336,7.336,0,0,1,4,24.6a3.438,3.438,0,0,1-1.782-1.262,6.353,6.353,0,0,1-.965-2.153,19.19,19.19,0,0,1-.223-3.119V1.8l2.228-.446V7Z" transform="translate(-0.659 -0.983)" fill="#999"/>
            <path id="Path_58" data-name="Path 58" d="M7.114,25.779a8.478,8.478,0,0,1-2.9-.446,4.233,4.233,0,0,1-1.931-1.411,5.475,5.475,0,0,1-1.04-2.3,19.52,19.52,0,0,1-.223-3.193V1.869L4,1.349V7.067h7.054V9.591H3.921V18.65a10.307,10.307,0,0,0,.223,2.376,6.474,6.474,0,0,0,.668,1.262,1.839,1.839,0,0,0,1.04.594,7.481,7.481,0,0,0,1.411.149,5.777,5.777,0,0,0,2.153-.3,6.778,6.778,0,0,0,1.262-.594l.371-.223.743,2.6-.223.149a9.114,9.114,0,0,1-1.782.743A7.769,7.769,0,0,1,7.114,25.779ZM1.768,2.463V18.427a11.447,11.447,0,0,0,.3,2.97,3.53,3.53,0,0,0,.817,2.079,3.893,3.893,0,0,0,1.634,1.188,6.638,6.638,0,0,0,2.6.371,8.479,8.479,0,0,0,2.45-.371c.594-.223,1.04-.371,1.337-.52l-.3-1.114c-.3.149-.594.3-.965.446a7.126,7.126,0,0,1-2.376.3A9.269,9.269,0,0,1,5.7,23.625a2.963,2.963,0,0,1-1.411-.817,3.734,3.734,0,0,1-.817-1.634,11.2,11.2,0,0,1-.3-2.525v-9.8h7.054V7.735H3.178V2.24Z" transform="translate(-1.025 -1.349)" fill="#fff"/>
          </g>
          <g id="Group_51" data-name="Group 51" transform="translate(10.396 5.643)">
            <path id="Path_59" data-name="Path 59" d="M14.981,18.508c-.668.149-1.559.371-2.673.594a21.547,21.547,0,0,1-4.158.371,8.682,8.682,0,0,1-3.341-.594,4.991,4.991,0,0,1-2.079-1.634,6.979,6.979,0,0,1-1.188-2.6A14.639,14.639,0,0,1,1.17,11.38V1.43H3.4v9.208a13.339,13.339,0,0,0,.3,3.193,4.125,4.125,0,0,0,.891,2.079A4.844,4.844,0,0,0,6.145,17.1a7.253,7.253,0,0,0,2.376.371c1.04,0,1.931-.074,2.747-.149.743-.149,1.262-.223,1.485-.3V1.43h2.228Z" transform="translate(-0.799 -1.059)" fill="#999"/>
            <path id="Path_60" data-name="Path 60" d="M8.516,20.211a9.794,9.794,0,0,1-3.49-.594A6.575,6.575,0,0,1,2.8,17.835a6.38,6.38,0,0,1-1.262-2.673,16.6,16.6,0,0,1-.371-3.416V1.425h2.97V11a12.692,12.692,0,0,0,.3,3.119,4.219,4.219,0,0,0,.817,1.931,2.827,2.827,0,0,0,1.411,1.04,6.335,6.335,0,0,0,2.228.371,26.209,26.209,0,0,0,2.673-.149,6.768,6.768,0,0,0,1.188-.223V1.425h2.97V19.172l-.3.074c-.668.149-1.559.371-2.673.594A22.989,22.989,0,0,1,8.516,20.211ZM1.908,2.168v9.579a15.169,15.169,0,0,0,.371,3.267A6.38,6.38,0,0,0,3.393,17.39a5.236,5.236,0,0,0,2,1.559,7.985,7.985,0,0,0,3.193.52A19.919,19.919,0,0,0,12.6,19.1c.965-.223,1.782-.371,2.376-.52V2.168H13.491V17.538l-.223.149a7.4,7.4,0,0,1-1.559.3,16.109,16.109,0,0,1-2.822.223,8.607,8.607,0,0,1-2.525-.371,3.915,3.915,0,0,1-1.782-1.262,6.133,6.133,0,0,1-.965-2.228A22.2,22.2,0,0,1,3.393,11V2.168Z" transform="translate(-1.165 -1.425)" fill="#fff"/>
          </g>
        </g>
      </g>
      <g id="Group_57" data-name="Group 57" transform="translate(88.734)">
        <g id="Group_56" data-name="Group 56">
          <g id="Group_54" data-name="Group 54">
            <path id="Path_61" data-name="Path 61" d="M3.617,11.26a6.145,6.145,0,0,1,1.856-.891,9.309,9.309,0,0,1,3.044-.52,8.5,8.5,0,0,1,3.416.668,6.912,6.912,0,0,1,2.45,1.931,9.032,9.032,0,0,1,1.559,2.9,11.815,11.815,0,0,1,.52,3.713,10.528,10.528,0,0,1-.668,3.861,7.807,7.807,0,0,1-1.708,2.97,7.644,7.644,0,0,1-2.747,1.782,8.974,8.974,0,0,1-3.564.668,19.744,19.744,0,0,1-3.935-.3q-1.448-.334-2.45-.668V1.756L3.617,1.31Zm0,14.554a8.422,8.422,0,0,0,1.485.371,23.82,23.82,0,0,0,2.673.149,5.831,5.831,0,0,0,4.6-1.856,7.475,7.475,0,0,0,1.708-5.346,11.743,11.743,0,0,0-.3-2.822,5.832,5.832,0,0,0-.965-2.3,4.538,4.538,0,0,0-1.782-1.559,6.017,6.017,0,0,0-2.747-.594A9.141,9.141,0,0,0,6.81,12a5.636,5.636,0,0,0-1.337.446,5.119,5.119,0,0,0-1.114.52,3.2,3.2,0,0,0-.743.52Z" transform="translate(-1.018 -0.939)" fill="#999"/>
            <path id="Path_62" data-name="Path 62" d="M8.141,29.076a19.744,19.744,0,0,1-3.935-.3,25.715,25.715,0,0,1-2.6-.668l-.223-.074V1.825l2.97-.52v9.727a11.168,11.168,0,0,1,1.337-.668,8.226,8.226,0,0,1,3.193-.52,8.033,8.033,0,0,1,6.237,2.747,8.594,8.594,0,0,1,1.634,3.044,12.62,12.62,0,0,1,.52,3.787,11.354,11.354,0,0,1-.668,4.01,8.4,8.4,0,0,1-1.856,3.044,8.613,8.613,0,0,1-2.9,1.931A10.007,10.007,0,0,1,8.141,29.076ZM2.127,27.442a12.4,12.4,0,0,0,2.228.52,18.5,18.5,0,0,0,3.861.3,9.983,9.983,0,0,0,3.416-.594,6.9,6.9,0,0,0,2.6-1.708,8.6,8.6,0,0,0,1.708-2.747,11.791,11.791,0,0,0,.594-3.713,10.592,10.592,0,0,0-.52-3.564,8.309,8.309,0,0,0-1.559-2.9,6.277,6.277,0,0,0-2.376-1.782,7.217,7.217,0,0,0-3.193-.668,8.478,8.478,0,0,0-2.9.446,19.329,19.329,0,0,0-1.782.891l-.594.52V2.2l-1.485.3Zm6.015-.371a23.82,23.82,0,0,1-2.673-.149,11.087,11.087,0,0,1-1.634-.371l-.223-.074V13.631l.149-.149a3.9,3.9,0,0,1,.817-.52,7.976,7.976,0,0,1,1.114-.52c.446-.149.891-.3,1.411-.446a11.077,11.077,0,0,1,1.559-.149,6.694,6.694,0,0,1,2.9.594,5.361,5.361,0,0,1,1.931,1.708,7.4,7.4,0,0,1,1.04,2.45,11.964,11.964,0,0,1,.3,2.9,7.965,7.965,0,0,1-1.856,5.643A6.372,6.372,0,0,1,8.141,27.071ZM4.354,25.883a3.931,3.931,0,0,0,1.188.3,23.452,23.452,0,0,0,2.6.149,5.654,5.654,0,0,0,4.381-1.782,7.205,7.205,0,0,0,1.634-5.124,10.173,10.173,0,0,0-.3-2.673,6.353,6.353,0,0,0-.965-2.153,4.262,4.262,0,0,0-1.634-1.411,5.6,5.6,0,0,0-2.6-.594,8.225,8.225,0,0,0-1.411.149c-.446.149-.891.223-1.337.371-.371.149-.668.371-.965.52A4.146,4.146,0,0,0,4.354,14Z" transform="translate(-1.384 -1.305)" fill="#fff"/>
          </g>
          <g id="Group_55" data-name="Group 55" transform="translate(16.113 8.539)">
            <path id="Path_63" data-name="Path 63" d="M1.606,10.633a11.487,11.487,0,0,1,.668-4.084,9.953,9.953,0,0,1,1.708-2.9,7.7,7.7,0,0,1,2.45-1.708,7.963,7.963,0,0,1,2.9-.52,6.827,6.827,0,0,1,5.2,2.153c1.262,1.411,1.931,3.564,1.931,6.534v.52a1.264,1.264,0,0,1-.074.52H3.982a7.676,7.676,0,0,0,1.634,4.975c1.04,1.188,2.6,1.708,4.752,1.708a10.173,10.173,0,0,0,2.9-.371,14.382,14.382,0,0,0,1.559-.594l.371,2a9.493,9.493,0,0,1-1.782.594,9.986,9.986,0,0,1-3.119.371,10.125,10.125,0,0,1-3.935-.668,7.361,7.361,0,0,1-2.747-1.931,7.8,7.8,0,0,1-1.559-2.9A14.54,14.54,0,0,1,1.606,10.633ZM14.155,9.222a6.76,6.76,0,0,0-1.262-4.307A4.211,4.211,0,0,0,9.4,3.356,5.078,5.078,0,0,0,7.249,3.8,7.145,7.145,0,0,0,5.616,5.138,7.7,7.7,0,0,0,4.5,6.994a11.839,11.839,0,0,0-.446,2.228Z" transform="translate(-1.235 -1.054)" fill="#999"/>
            <path id="Path_64" data-name="Path 64" d="M10.66,20.578a9.791,9.791,0,0,1-4.084-.743A7.079,7.079,0,0,1,3.754,17.9a7.858,7.858,0,0,1-1.634-3.119A11.981,11.981,0,0,1,1.6,11a11.915,11.915,0,0,1,.668-4.158A9.416,9.416,0,0,1,4.051,3.8a6.8,6.8,0,0,1,2.6-1.782A7.649,7.649,0,0,1,9.695,1.42a6.893,6.893,0,0,1,5.421,2.228c1.411,1.485,2.079,3.713,2.079,6.757V11a1.1,1.1,0,0,1-.074.52v.3H4.72A7.516,7.516,0,0,0,6.2,16.2a5.783,5.783,0,0,0,4.53,1.634,9.068,9.068,0,0,0,2.747-.3,12.007,12.007,0,0,0,1.485-.594l.446-.223.594,2.673-.223.149a6.9,6.9,0,0,1-1.931.668A10.2,10.2,0,0,1,10.66,20.578ZM9.695,2.163a7.21,7.21,0,0,0-2.747.52,7.733,7.733,0,0,0-2.3,1.634A8.985,8.985,0,0,0,3.012,7.063,10.656,10.656,0,0,0,2.344,11a13.955,13.955,0,0,0,.446,3.638,7.034,7.034,0,0,0,1.485,2.747,6.506,6.506,0,0,0,2.6,1.782,9.734,9.734,0,0,0,3.861.668,11.578,11.578,0,0,0,2.97-.371c.668-.223,1.114-.371,1.485-.52l-.3-1.114c-.3.074-.668.223-1.188.371a10.359,10.359,0,0,1-2.97.371c-2.3,0-4.01-.594-5.049-1.856a8.2,8.2,0,0,1-1.708-5.2v-.371H16.452v-.668c0-2.822-.594-4.975-1.856-6.312A6.22,6.22,0,0,0,9.695,2.163Zm5.2,7.8H4.051V9.588A12.231,12.231,0,0,1,4.5,7.212a6.821,6.821,0,0,1,1.188-2A7.994,7.994,0,0,1,7.467,3.87a4.773,4.773,0,0,1,2.3-.52,4.6,4.6,0,0,1,3.787,1.708,7.464,7.464,0,0,1,1.337,4.53Zm-10.1-.743H14.15A6.679,6.679,0,0,0,12.962,5.5,3.937,3.937,0,0,0,9.769,4.093a4.421,4.421,0,0,0-2,.446A5.814,5.814,0,0,0,6.279,5.727a5.359,5.359,0,0,0-1.04,1.782A6.421,6.421,0,0,0,4.794,9.217Z" transform="translate(-1.601 -1.42)" fill="#fff"/>
          </g>
        </g>
      </g>
    </g>
  </g>
</svg>
