<svg xmlns="http://www.w3.org/2000/svg" width="167.856" height="79.172" viewBox="0 0 167.856 79.172">
  <g id="Group_6" data-name="Group 6" transform="translate(-252.516 -218.197)">
    <path id="Path_7" data-name="Path 7" d="M308.114,218.926l-.02,12.236-.432-.492-10.277-11.744h-5.135v21.231h5.682V227.3l11.14,12.859h4.719V218.926Z" transform="translate(-19.934 -0.366)" fill="#77757a"/>
    <path id="Path_8" data-name="Path 8" d="M349.22,218.926v21.231h15.852l-.009-4.3H354.931l-.016-4.482,9.483-.009v-4.285l-9.483-.015.016-3.832h9.924v-4.3Z" transform="translate(-48.516 -0.366)" fill="#77757a"/>
    <g id="Group_5" data-name="Group 5" transform="translate(252.516 218.197)">
      <path id="Path_9" data-name="Path 9" d="M410.325,233.42a5.856,5.856,0,0,1-1.69,4.26,9.146,9.146,0,0,1-6.563,2.279,14.225,14.225,0,0,1-7.625-2.037l-.139-.074v-5.075l.392.255c2.993,1.968,4.752,2.633,6.993,2.633,2.3,0,2.794-.909,2.8-1.67,0-1.186-1.675-1.784-3.613-2.47-2.953-1.059-6.991-2.5-6.991-7.125,0-3.709,3.284-6.2,8.18-6.2a17.59,17.59,0,0,1,7.165,1.63l.155.069-.02,4.587-.353-.152c-3.036-1.339-4.791-1.84-6.481-1.84s-2.8.573-2.8,1.453c0,1.072,1.632,1.668,3.519,2.355a17.229,17.229,0,0,1,4.652,2.27,5.828,5.828,0,0,1,2.416,4.851" transform="translate(-323.444 -218.197)" fill="#77757a"/>
      <path id="Path_10" data-name="Path 10" d="M459.149,218.926l-6.579,7.569-.183-.224-6.371-7.345h-4.887v21.231h5.7V227.639l5.238,6.062,1.032.009,5.223-6.082.015,12.53h5.7l-.02-21.231Z" transform="translate(-347.143 -218.563)" fill="#77757a"/>
      <path id="Path_11" data-name="Path 11" d="M510.1,231.588l2.57-6.767,2.968,7.105h-5.677Zm-.7-12.653-8.592,21.222h6.042l1.553-4.116h8.959l1.71,4.116H525.2l-9.442-21.233Z" transform="translate(-377.086 -218.562)" fill="#77757a"/>
      <path id="Path_12" data-name="Path 12" d="M409.727,279.4V290.49a.655.655,0,0,1-.656.656l-4.379.02a.64.64,0,0,1-.461-.194.656.656,0,0,1-.2-.468V279.4a.659.659,0,0,1,.66-.656h4.375a.656.656,0,0,1,.66.656" transform="translate(-328.531 -248.574)" fill="#77757a"/>
      <path id="Path_13" data-name="Path 13" d="M468.1,290.489a.659.659,0,0,1-.66.656h-4.379a.659.659,0,0,1-.661-.656V279.4a.665.665,0,0,1,.661-.656h4.374a.655.655,0,0,1,.656.656Z" transform="translate(-357.812 -248.574)" fill="#77757a"/>
      <path id="Path_14" data-name="Path 14" d="M438.908,290.508a.645.645,0,0,1-.188.461.662.662,0,0,1-.472.2l-4.379-.02a.662.662,0,0,1-.656-.656V279.4a.66.66,0,0,1,.66-.656h4.37a.659.659,0,0,1,.66.656Z" transform="translate(-343.171 -248.573)" fill="#77757a"/>
      <path id="Path_15" data-name="Path 15" d="M418.321,359.652l-2.138.1c-5.5.249-135.195,6.085-156.25,7.41l-1.72.122c-1.618.114-3.454.242-4.522.242a1.374,1.374,0,0,1-1.169-1.357c-.028-.347,0-1.5,1.657-1.8a9.9,9.9,0,0,1,1.186-.139l.126-.011c21.547-1.451,95.058-6.188,136.311-6.188,11.993,0,20.213.408,24.433,1.222Z" transform="translate(-252.516 -288.351)" fill="#77757a"/>
      <path id="Path_16" data-name="Path 16" d="M583.489,221.853a2.922,2.922,0,1,1-2.917-2.928,2.923,2.923,0,0,1,2.917,2.928" transform="translate(-415.632 -218.562)" fill="#77757a"/>
      <path id="Path_17" data-name="Path 17" d="M543.431,254.3v20.067a2.884,2.884,0,0,1-2.883,2.883h-39.6a2.847,2.847,0,0,1-2.848-2.843,3.058,3.058,0,0,1,2.9-3.051h34.418a2.151,2.151,0,0,0,2.317-2.176V254.3a2.848,2.848,0,0,1,5.7,0" transform="translate(-375.723 -234.884)" fill="#77757a"/>
      <path id="Path_18" data-name="Path 18" d="M293.863,276.614H278.108V260.93H290.38a3.488,3.488,0,0,1,3.483,3.49Zm22.462-18.8a3.055,3.055,0,0,0-.974-1.923,2.925,2.925,0,0,0-1.972-.795H272.408v18.935H261.079a2.451,2.451,0,0,1-2.447-2.445V221.775a2.848,2.848,0,1,0-5.7,0v54.994a2.95,2.95,0,0,0,2.952,2.941H272.4l.038.21a2.758,2.758,0,0,0,2.724,2.389h24.392V260.93h13.934A2.863,2.863,0,0,0,315.6,260a2.892,2.892,0,0,0,.73-2.192" transform="translate(-252.727 -218.563)" fill="#77757a"/>
    </g>
  </g>
</svg>
