<svg id="picture_as_pdf_white_24dp" xmlns="http://www.w3.org/2000/svg" width="50" height="50" viewBox="0 0 50 50">
  <path id="Path_69" data-name="Path 69" d="M0,0H50V50H0Z" fill="none"/>
  <path id="Path_70" data-name="Path 70" d="M43.4,2H15.8a4.614,4.614,0,0,0-4.6,4.6V34.2a4.614,4.614,0,0,0,4.6,4.6H43.4A4.614,4.614,0,0,0,48,34.2V6.6A4.614,4.614,0,0,0,43.4,2Zm0,32.2H15.8V6.6H43.4ZM6.6,11.2H2V43.4A4.614,4.614,0,0,0,6.6,48H38.8V43.4H6.6ZM34.2,25V18.1a2.307,2.307,0,0,0-2.3-2.3H27.3V27.3h4.6A2.307,2.307,0,0,0,34.2,25Zm-4.6-6.9h2.3V25H29.6Zm9.2,4.6h2.3V20.4H38.8V18.1h2.3V15.8H36.5V27.3h2.3Zm-18.4,0h2.3A2.307,2.307,0,0,0,25,20.4V18.1a2.307,2.307,0,0,0-2.3-2.3H18.1V27.3h2.3Zm0-4.6h2.3v2.3H20.4Z" fill="#fff"/>
</svg>
