<svg id="phone_white_24dp" xmlns="http://www.w3.org/2000/svg" width="50" height="50" viewBox="0 0 50 50">
  <path id="Path_67" data-name="Path 67" d="M0,0H50V50H0Z" fill="none"/>
  <path id="Path_68" data-name="Path 68" d="M10.21,7.073a25.076,25.076,0,0,0,.916,5.275L8.682,14.792A30.194,30.194,0,0,1,7.134,7.073H10.21m20.081,24.48a25.972,25.972,0,0,0,5.3.916V35.5a31.418,31.418,0,0,1-7.739-1.527l2.444-2.424M12.165,3H5.037A2.043,2.043,0,0,0,3,5.037,34.62,34.62,0,0,0,37.623,39.659a2.043,2.043,0,0,0,2.037-2.037V30.515a2.043,2.043,0,0,0-2.037-2.037,23.232,23.232,0,0,1-7.271-1.161,1.71,1.71,0,0,0-.631-.1,2.086,2.086,0,0,0-1.446.591l-4.481,4.481A30.852,30.852,0,0,1,10.373,18.865l4.481-4.481a2.044,2.044,0,0,0,.509-2.077A23.137,23.137,0,0,1,14.2,5.037,2.043,2.043,0,0,0,12.165,3Z" transform="translate(3.67 3.67)" fill="#fff"/>
</svg>
